<svg xmlns="http://www.w3.org/2000/svg" xmlns:xlink="http://www.w3.org/1999/xlink" viewBox="0 0 64 64"><defs><style>.cls-1{fill:none;}.cls-2{clip-path:url(#clip-path);}.cls-3{fill:#221e1f;}.cls-4{fill:#73bf44;}.cls-5{fill:#6eccf4;}.cls-6{fill:#faed1e;}.cls-7{fill:#fff;}.cls-8{fill:#045ba8;}.cls-9{fill:#eb1f26;}.cls-10{fill:#e90a8a;}</style><clipPath id="clip-path"><rect class="cls-1" x="4.31" y="4.31" width="55.38" height="55.38"/></clipPath></defs><g id="favicon"><g class="cls-2"><g class="cls-2"><path class="cls-3" d="M55.06,59.69H8.94a4.63,4.63,0,0,1-4.63-4.63V8.94A4.63,4.63,0,0,1,8.94,4.31H55.06a4.63,4.63,0,0,1,4.63,4.63V55.06a4.63,4.63,0,0,1-4.63,4.63"/><path class="cls-4" d="M19.16,8.85H10.59a1.94,1.94,0,0,0-1.94,1.94v8.57a1.94,1.94,0,0,0,1.94,1.94h8.57a1.94,1.94,0,0,0,1.94-1.94V10.79a1.94,1.94,0,0,0-1.94-1.94"/><path class="cls-5" d="M35.79,8.85H27.23a1.94,1.94,0,0,0-1.95,1.94v8.57a1.94,1.94,0,0,0,1.95,1.94h8.56a1.94,1.94,0,0,0,2-1.94V10.79a1.94,1.94,0,0,0-2-1.94"/><path class="cls-6" d="M19.16,25.77H10.59a1.94,1.94,0,0,0-1.94,1.95v8.56a1.94,1.94,0,0,0,1.94,1.95h8.57a1.94,1.94,0,0,0,1.94-1.95V27.72a1.94,1.94,0,0,0-1.94-1.95"/><path class="cls-7" d="M35.79,25.77H27.23a2,2,0,0,0-1.95,1.95v8.56a2,2,0,0,0,1.95,1.95h8.56a2,2,0,0,0,2-1.95V27.72a2,2,0,0,0-2-1.95"/><path class="cls-8" d="M52.43,25.77H43.86a1.94,1.94,0,0,0-1.94,1.95v8.56a1.94,1.94,0,0,0,1.94,1.95h8.57a1.94,1.94,0,0,0,1.94-1.95V27.72a1.94,1.94,0,0,0-1.94-1.95"/><path class="cls-9" d="M19.16,42.32H10.59a1.94,1.94,0,0,0-1.94,1.94v8.57a1.94,1.94,0,0,0,1.94,1.94h8.57a1.94,1.94,0,0,0,1.94-1.94V44.26a1.94,1.94,0,0,0-1.94-1.94"/><path class="cls-10" d="M52.43,42.32H43.86a1.94,1.94,0,0,0-1.94,1.94v8.57a1.94,1.94,0,0,0,1.94,1.94h8.57a1.94,1.94,0,0,0,1.94-1.94V44.26a1.94,1.94,0,0,0-1.94-1.94"/></g></g></g></svg>